<svg width="24" height="29" viewBox="0 0 24 29" fill="none" xmlns="http://www.w3.org/2000/svg">
<path d="M1.43312 0C1.07484 0 0.692675 0.143312 0.429936 0.429936C0.167197 0.71656 0 1.07484 0 1.43312L0 27.5669C0 27.9252 0.143312 28.3073 0.429936 28.5701C0.71656 28.8567 1.07484 29 1.43312 29H22.4522C22.8105 29 23.1927 28.8567 23.4554 28.5701C23.742 28.2834 23.8854 27.9252 23.8854 27.5669V8.12102L15.7643 0H1.43312Z" fill="#FFBA6B"/>
<path d="M23.8857 8.12102H17.1978C16.8395 8.12102 16.4573 7.97771 16.1946 7.69108C15.908 7.42834 15.7646 7.04618 15.7646 6.6879V0L23.8857 8.12102Z" fill="white" fill-opacity="0.5"/>
<path d="M15.5648 15.1964L10.0562 18.8221C9.47599 19.2028 9 18.9524 9 18.263V10.7373C9 10.0478 9.47599 9.79569 10.0562 10.1799L15.5648 13.8072C16.1451 14.1863 16.1451 14.814 15.5648 15.1964Z" fill="white"/>
</svg>
