<svg width="24" height="24" viewBox="0 0 24 24" fill="none" xmlns="http://www.w3.org/2000/svg">
<path d="M14.4208 12.314L4.36679 20.54C3.93935 20.8897 3.87635 21.5198 4.22607 21.9472C4.5758 22.3746 5.20582 22.4376 5.63327 22.0879L15.7942 13.7745C15.8913 13.695 15.9802 13.606 16.0597 13.5089C16.7197 12.7023 16.6008 11.5134 15.7942 10.8535L5.63327 2.54001C5.20582 2.19028 4.5758 2.25328 4.22607 2.68073C3.87635 3.10817 3.93935 3.73819 4.36679 4.08792L14.4208 12.314Z" fill="#1B2129"/>
<path d="M18 3.20102C18 2.71111 18.3971 2.31396 18.8871 2.31396H19.1129C19.6029 2.31396 20 2.71111 20 3.20102V21.4269C20 21.9168 19.6029 22.314 19.1129 22.314H18.8871C18.3971 22.314 18 21.9168 18 21.4269V3.20102Z" fill="#8B949E"/>
</svg>
