<svg width="24" height="24" viewBox="0 0 24 24" fill="none" xmlns="http://www.w3.org/2000/svg">
<path d="M2 1.90909C2 1.40701 2.40701 1 2.90909 1H21.0909C21.593 1 22 1.40701 22 1.90909V2.09091C22 2.59299 21.593 3 21.0909 3H2.90909C2.40701 3 2 2.59299 2 2.09091V1.90909Z" fill="#1B2129"/>
<path fill-rule="evenodd" clip-rule="evenodd" d="M18.9099 4.66699H5.09387C5.03488 4.66699 4.97592 4.6696 4.91716 4.67481C3.81691 4.77241 3.0041 5.74345 3.1017 6.8437L4.3731 21.177C4.46465 22.2091 5.32919 23.0003 6.36528 23.0003H17.6696C18.7073 23.0003 19.5727 22.2066 19.6621 21.1727L20.9024 6.83941C20.9074 6.78207 20.9099 6.72455 20.9099 6.66699C20.9099 5.56242 20.0145 4.66699 18.9099 4.66699ZM6.36516 21.0003L5.09375 6.66699H18.9098L17.6695 21.0003H6.36516Z" fill="#1B2129"/>
<path d="M11.0918 10.25C11.0918 9.69771 11.5395 9.25 12.0918 9.25C12.6441 9.25 13.0918 9.69772 13.0918 10.25V18.3333C13.0918 18.8856 12.6441 19.3333 12.0918 19.3333C11.5395 19.3333 11.0918 18.8856 11.0918 18.3333V10.25Z" fill="#8B949E"/>
</svg>
