<svg width="24" height="24" viewBox="0 0 24 24" fill="none" xmlns="http://www.w3.org/2000/svg">
<path d="M11.1914 7.93066C11.1914 7.37838 11.6391 6.93066 12.1914 6.93066C12.7437 6.93066 13.1914 7.37838 13.1914 7.93066V13.8057C13.1914 14.3579 12.7437 14.8057 12.1914 14.8057C11.6391 14.8057 11.1914 14.3579 11.1914 13.8057V7.93066Z" fill="#1B2129"/>
<path d="M13.3965 16.8576C13.3965 17.548 12.8368 18.1076 12.1465 18.1076C11.4561 18.1076 10.8965 17.548 10.8965 16.8576C10.8965 16.1673 11.4561 15.6076 12.1465 15.6076C12.8368 15.6076 13.3965 16.1673 13.3965 16.8576Z" fill="#1B2129"/>
<path fill-rule="evenodd" clip-rule="evenodd" d="M22.7314 11.446C23.2762 11.355 23.6439 10.8396 23.5529 10.2949C22.6306 4.77746 17.7813 0.680664 12.0637 0.680664C6.36031 0.680664 1.51917 4.75746 0.580812 10.2572C0.487925 10.8016 0.853962 11.3183 1.39838 11.4112C1.9428 11.5041 2.45943 11.138 2.55232 10.5936C3.32659 6.05556 7.33423 2.68066 12.0637 2.68066C16.8049 2.68066 20.8193 6.07207 21.5803 10.6246C21.6713 11.1693 22.1867 11.5371 22.7314 11.446ZM1.40264 13.008C0.858748 13.104 0.495608 13.6227 0.591541 14.1665C1.55643 19.6369 6.38382 23.6806 12.0636 23.6806C17.7319 23.6806 22.5526 19.6529 23.5302 14.1967C23.6276 13.6531 23.2659 13.1334 22.7222 13.036C22.1786 12.9386 21.659 13.3004 21.5616 13.844C20.7549 18.3462 16.764 21.6806 12.0636 21.6806C7.35367 21.6806 3.35732 18.3331 2.56114 13.8191C2.4652 13.2753 1.94653 12.9121 1.40264 13.008Z" fill="#8B949E"/>
</svg>
