<svg width="24" height="24" viewBox="0 0 24 24" fill="none" xmlns="http://www.w3.org/2000/svg">
<path d="M3.53056 21.2083C3.15505 20.8328 3.15505 20.224 3.53056 19.8485L19.8484 3.53064C20.2239 3.15513 20.8327 3.15513 21.2082 3.53064C21.5837 3.90614 21.5837 4.51495 21.2082 4.89046L4.89038 21.2083C4.51487 21.5838 3.90606 21.5838 3.53056 21.2083Z" fill="#8B949E"/>
<path fill-rule="evenodd" clip-rule="evenodd" d="M20.8605 20.8127C20.47 21.2033 19.8368 21.2033 19.4463 20.8127L3.86273 5.2292C3.47221 4.83868 3.4722 4.20551 3.86273 3.81499C4.25325 3.42446 4.88642 3.42446 5.27694 3.81499L20.8605 19.3985C21.251 19.7891 21.251 20.4222 20.8605 20.8127Z" fill="#1B2129"/>
</svg>
