<svg width="25" height="24" viewBox="0 0 25 24" fill="none" xmlns="http://www.w3.org/2000/svg">
<path d="M12.0861 22C17.6091 22 22.0861 17.523 22.0861 12C22.0861 6.477 17.6091 2 12.0861 2C6.56312 2 2.08612 6.477 2.08612 12C2.08612 17.523 6.56312 22 12.0861 22ZM12.0861 24C5.45912 24 0.0861206 18.627 0.0861206 12C0.0861206 5.373 5.45912 0 12.0861 0C18.7131 0 24.0861 5.373 24.0861 12C24.0861 18.627 18.7131 24 12.0861 24Z" fill="#1B2129"/>
<path d="M12.3086 4.8C10.7616 4.8 9.53249 5.21539 8.64242 6.06594C7.73117 6.89671 7.28613 8.02418 7.28613 9.46814H9.53249C9.53249 8.59781 9.72322 7.9055 10.1047 7.43077C10.5285 6.87693 11.2279 6.6 12.1815 6.6C12.9444 6.6 13.5378 6.7978 13.9616 7.19341C14.3643 7.58901 14.5762 8.12308 14.5762 8.81539C14.5762 9.32967 14.3855 9.8044 14.004 10.2593L13.6437 10.6352C12.3298 11.7231 11.5245 12.5341 11.2279 13.0879C10.9524 13.6022 10.8252 14.2352 10.8252 14.967V15.3033H13.0928V14.967C13.0928 14.4725 13.1987 14.0374 13.4318 13.6418C13.6226 13.2857 13.9192 12.9495 14.3007 12.633C15.3179 11.822 15.9113 11.3077 16.102 11.0901C16.6106 10.4571 16.8861 9.64616 16.8861 8.67693C16.8861 7.49011 16.4623 6.54066 15.6358 5.84835C14.7881 5.13627 13.6861 4.8 12.3086 4.8ZM11.9484 16.3714C11.5034 16.3714 11.1431 16.4901 10.8676 16.767C10.5497 17.0242 10.4014 17.3604 10.4014 17.7758C10.4014 18.1714 10.5497 18.5077 10.8676 18.7846C11.1431 19.0615 11.5034 19.2 11.9484 19.2C12.3722 19.2 12.7537 19.0615 13.0716 18.8044C13.3683 18.5275 13.5166 18.1912 13.5166 17.7758C13.5166 17.3604 13.3683 17.0242 13.0716 16.767C12.7749 16.4901 12.3934 16.3714 11.9484 16.3714Z" fill="#8B949E"/>
</svg>
