<svg width="24" height="24" viewBox="0 0 24 24" fill="none" xmlns="http://www.w3.org/2000/svg">
<path d="M22.041 11C22.5933 11 23.041 11.4477 23.041 12C23.041 12.5523 22.5933 13 22.041 13L3.04102 13C2.48873 13 2.04102 12.5523 2.04102 12C2.04102 11.4477 2.48873 11 3.04102 11L22.041 11Z" fill="#8B949E"/>
<path d="M11.7483 20.293C12.1387 20.6837 12.1386 21.3168 11.748 21.7073C11.3574 22.0977 10.7242 22.0976 10.3338 21.707L1.29193 12.6612C1.01909 12.3882 0.936982 11.9968 1.04557 11.6526C1.06732 11.4247 1.16701 11.2031 1.34401 11.031L10.344 2.28293C10.74 1.89799 11.3731 1.90697 11.7581 2.303C12.143 2.69903 12.134 3.33213 11.738 3.71707L3.33945 11.8806L11.7483 20.293Z" fill="#1B2129"/>
</svg>
