<svg width="24" height="24" viewBox="0 0 24 24" fill="none" xmlns="http://www.w3.org/2000/svg">
<path fill-rule="evenodd" clip-rule="evenodd" d="M13 22C13 22.5523 12.5523 23 12 23C11.4477 23 11 22.5523 11 22L11 7C11 6.44772 11.4477 6 12 6C12.5523 6 13 6.44772 13 7L13 22Z" fill="#1B2129"/>
<path d="M12.1529 7.41055L5.69457 13.6458C5.29725 14.0294 4.66418 14.0183 4.28058 13.6209C3.89698 13.2236 3.9081 12.5905 4.30543 12.2069L11.4796 5.28058C11.6777 5.08935 11.9343 4.99622 12.1894 5.00012C12.4442 5.00391 12.6979 5.10474 12.8901 5.30186L19.716 12.3019C20.1015 12.6973 20.0936 13.3304 19.6981 13.716C19.3027 14.1015 18.6696 14.0936 18.284 13.6981L12.1529 7.41055Z" fill="#1B2129"/>
<path d="M2 2C2 1.44772 2.44772 1 3 1H21C21.5523 1 22 1.44772 22 2C22 2.55228 21.5523 3 21 3H3C2.44772 3 2 2.55228 2 2Z" fill="#8B949E"/>
</svg>
