<svg width="24" height="24" viewBox="0 0 24 24" fill="none" xmlns="http://www.w3.org/2000/svg">
<path fill-rule="evenodd" clip-rule="evenodd" d="M23 12C23 18.0751 18.0751 23 12 23C5.92487 23 1 18.0751 1 12C1 5.92487 5.92487 1 12 1C18.0751 1 23 5.92487 23 12ZM3 12C3 16.9706 7.02944 21 12 21C16.9706 21 21 16.9706 21 12C21 7.02944 16.9706 3 12 3C7.02944 3 3 7.02944 3 12Z" fill="#8B949E"/>
<path d="M9.85742 8.59229C9.85742 8.04 10.3051 7.59229 10.8574 7.59229C11.4097 7.59229 11.8574 8.04 11.8574 8.59229V12.9923C11.8574 13.5446 11.4097 13.9923 10.8574 13.9923C10.3051 13.9923 9.85742 13.5446 9.85742 12.9923V8.59229Z" fill="#1B2129"/>
<path d="M16.8301 12.3408C17.3824 12.3408 17.8301 12.7885 17.8301 13.3408C17.8301 13.8931 17.3824 14.3408 16.8301 14.3408L10.9755 14.3408C10.4232 14.3408 9.97553 13.8931 9.97553 13.3408C9.97553 12.7885 10.4232 12.3408 10.9755 12.3408L16.8301 12.3408Z" fill="#1B2129"/>
</svg>
