<svg width="24" height="24" viewBox="0 0 24 24" fill="none" xmlns="http://www.w3.org/2000/svg">
<path fill-rule="evenodd" clip-rule="evenodd" d="M5.11622 2.39459L0.569729 10.6589C0.127029 11.4636 0.125089 12.4385 0.564583 13.2449L5.11562 21.596C5.58725 22.4614 6.49408 23 7.47968 23H16.4964C17.4802 23 18.3856 22.4634 18.858 21.6005L23.4259 13.2559C23.8718 12.4415 23.8665 11.4547 23.4119 10.6451L18.768 2.37421C18.2915 1.52544 17.3939 1 16.4205 1H7.47513C6.49337 1 5.58944 1.5344 5.11622 2.39459ZM2.32074 12.2879C2.20772 12.0805 2.20822 11.8298 2.32206 11.6229L6.86855 3.35861C6.99023 3.13742 7.22267 3 7.47513 3H16.4205C16.6708 3 16.9016 3.13511 17.0241 3.35337L21.6679 11.6242C21.7848 11.8324 21.7862 12.0861 21.6716 12.2956L17.1037 20.6401C16.9822 20.862 16.7494 21 16.4964 21H7.47968C7.22624 21 6.99305 20.8615 6.87178 20.639L2.32074 12.2879Z" fill="#1B2129"/>
<path fill-rule="evenodd" clip-rule="evenodd" d="M16.9219 11.9565C16.9219 14.718 14.6833 16.9565 11.9219 16.9565C9.16045 16.9565 6.92188 14.718 6.92188 11.9565C6.92188 9.19512 9.16045 6.95654 11.9219 6.95654C14.6833 6.95654 16.9219 9.19512 16.9219 11.9565ZM8.92188 11.9565C8.92188 13.6134 10.265 14.9565 11.9219 14.9565C13.5787 14.9565 14.9219 13.6134 14.9219 11.9565C14.9219 10.2997 13.5787 8.95654 11.9219 8.95654C10.265 8.95654 8.92188 10.2997 8.92188 11.9565Z" fill="#8B949E"/>
</svg>
