<svg width="24" height="24" viewBox="0 0 24 24" fill="none" xmlns="http://www.w3.org/2000/svg">
<path fill-rule="evenodd" clip-rule="evenodd" d="M13.0273 16.9873C13.0273 17.5396 12.5796 17.9873 12.0273 17.9873C11.4751 17.9873 11.0273 17.5396 11.0273 16.9873L11.0273 2.9873C11.0273 2.43502 11.4751 1.9873 12.0273 1.9873C12.5796 1.9873 13.0273 2.43502 13.0273 2.9873L13.0273 16.9873Z" fill="#1B2129"/>
<path d="M5.72192 9.63309C5.32459 10.0167 4.69152 10.0056 4.30792 9.60824C3.92432 9.21092 3.93544 8.57785 4.33277 8.19425L11.5069 1.26788C11.705 1.07666 11.9617 0.983521 12.2168 0.987421C12.4715 0.991213 12.7253 1.09205 12.9175 1.28916L19.7433 8.28916C20.1289 8.68457 20.1209 9.31769 19.7255 9.70326C19.3301 10.0888 18.697 10.0809 18.3114 9.68545L12.1802 3.39785L5.72192 9.63309Z" fill="#1B2129"/>
<path d="M1.02734 14.9873V19.9873C1.02734 21.6442 2.37049 22.9873 4.02734 22.9873H20.0273C21.6842 22.9873 23.0273 21.6442 23.0273 19.9873V14.9873C23.0273 14.435 22.5796 13.9873 22.0273 13.9873C21.4751 13.9873 21.0273 14.435 21.0273 14.9873V19.9873C21.0273 20.5396 20.5796 20.9873 20.0273 20.9873H4.02734C3.47506 20.9873 3.02734 20.5396 3.02734 19.9873V14.9873C3.02734 14.435 2.57963 13.9873 2.02734 13.9873C1.47506 13.9873 1.02734 14.435 1.02734 14.9873Z" fill="#8B949E"/>
</svg>
