<svg width="24" height="24" viewBox="0 0 24 24" fill="none" xmlns="http://www.w3.org/2000/svg">
<path fill-rule="evenodd" clip-rule="evenodd" d="M21 2.8335H3C1.89543 2.8335 1 3.72893 1 4.8335V21.0002C1 22.1047 1.89543 23.0002 3 23.0002H21C22.1046 23.0002 23 22.1047 23 21.0002V4.8335C23 3.72893 22.1046 2.8335 21 2.8335ZM3 21.0002V4.8335H21V21.0002H3Z" fill="#1B2129"/>
<path d="M5.58398 2C5.58398 1.44772 6.0317 1 6.58398 1C7.13627 1 7.58398 1.44772 7.58398 2V5.5C7.58398 6.05228 7.13627 6.5 6.58398 6.5C6.0317 6.5 5.58398 6.05228 5.58398 5.5V2Z" fill="#1B2129"/>
<path d="M16.584 2C16.584 1.44772 17.0317 1 17.584 1C18.1363 1 18.584 1.44772 18.584 2V5.5C18.584 6.05228 18.1363 6.5 17.584 6.5C17.0317 6.5 16.584 6.05228 16.584 5.5V2Z" fill="#1B2129"/>
<path d="M4.66602 11.1665C4.66602 10.6142 5.11373 10.1665 5.66602 10.1665H10.0827C10.635 10.1665 11.0827 10.6142 11.0827 11.1665C11.0827 11.7188 10.635 12.1665 10.0827 12.1665H5.66601C5.11373 12.1665 4.66602 11.7188 4.66602 11.1665Z" fill="#8B949E"/>
<path d="M4.66602 15.75C4.66602 15.1977 5.11373 14.75 5.66602 14.75H10.0827C10.635 14.75 11.0827 15.1977 11.0827 15.75C11.0827 16.3023 10.635 16.75 10.0827 16.75H5.66601C5.11373 16.75 4.66602 16.3023 4.66602 15.75Z" fill="#8B949E"/>
<path d="M12.916 11.1665C12.916 10.6142 13.3637 10.1665 13.916 10.1665H18.3327C18.885 10.1665 19.3327 10.6142 19.3327 11.1665C19.3327 11.7188 18.885 12.1665 18.3327 12.1665H13.916C13.3637 12.1665 12.916 11.7188 12.916 11.1665Z" fill="#8B949E"/>
</svg>
