<svg width="24" height="24" viewBox="0 0 24 24" fill="none" xmlns="http://www.w3.org/2000/svg">
<path fill-rule="evenodd" clip-rule="evenodd" d="M15.2166 7.77734H8.14664C7.68272 7.77734 7.30664 8.15342 7.30664 8.61734V15.6873C7.30664 16.1513 7.68272 16.5273 8.14664 16.5273H15.2166C15.6806 16.5273 16.0566 16.1513 16.0566 15.6873V8.61734C16.0566 8.15342 15.6806 7.77734 15.2166 7.77734ZM9.30664 14.5273V9.77734H14.0566V14.5273H9.30664Z" fill="#1B2129"/>
<path fill-rule="evenodd" clip-rule="evenodd" d="M22.4932 11.4177C23.0379 11.3267 23.4057 10.8113 23.3146 10.2665C22.3923 4.74914 17.543 0.652344 11.8254 0.652344C6.12202 0.652344 1.28089 4.72914 0.342531 10.2289C0.249643 10.7733 0.615681 11.29 1.1601 11.3829C1.70452 11.4757 2.22115 11.1097 2.31404 10.5653C3.08831 6.02724 7.09595 2.65234 11.8254 2.65234C16.5666 2.65234 20.581 6.04375 21.342 10.5963C21.433 11.141 21.9484 11.5088 22.4932 11.4177ZM1.16436 12.9797C0.620467 13.0757 0.257327 13.5943 0.35326 14.1382C1.31815 19.6086 6.14553 23.6523 11.8253 23.6523C17.4936 23.6523 22.3143 19.6246 23.2919 14.1684C23.3893 13.6248 23.0276 13.1051 22.484 13.0077C21.9403 12.9103 21.4207 13.2721 21.3233 13.8157C20.5166 18.3179 16.5257 21.6523 11.8253 21.6523C7.11539 21.6523 3.11904 18.3047 2.32286 13.7908C2.22692 13.2469 1.70824 12.8838 1.16436 12.9797Z" fill="#8B949E"/>
</svg>
