<svg width="24" height="24" viewBox="0 0 24 24" fill="none" xmlns="http://www.w3.org/2000/svg">
<path d="M21.3107 5.76023C19.2447 2.80246 15.8436 1 12.1374 1C5.98943 1 1 5.92179 1 12C1 18.0782 5.98943 23 12.1374 23C17.3201 23 21.7864 19.4747 22.9721 14.557C23.1016 14.0201 22.7713 13.4799 22.2344 13.3505C21.6975 13.221 21.1573 13.5513 21.0279 14.0882C20.0585 18.1085 16.3952 21 12.1374 21C7.08793 21 3 16.9675 3 12C3 7.03252 7.08793 3 12.1374 3C15.1851 3 17.9764 4.47925 19.6711 6.90552C19.9874 7.35828 20.6108 7.46894 21.0636 7.15267C21.5164 6.83641 21.627 6.21299 21.3107 5.76023Z" fill="#1B2129"/>
<path d="M20.166 5.94063H16.166C15.6137 5.94063 15.166 6.38834 15.166 6.94063C15.166 7.49291 15.6137 7.94063 16.166 7.94063H22.166V2C22.166 1.44772 21.7183 1 21.166 1C20.6137 1 20.166 1.44772 20.166 2V5.94063Z" fill="#8B949E"/>
</svg>
