<svg width="24" height="24" viewBox="0 0 24 24" fill="none" xmlns="http://www.w3.org/2000/svg">
<path d="M10.6406 17.8703L21.2078 4.89821C21.5566 4.47001 21.4922 3.84013 21.064 3.49132C20.6358 3.14251 20.0059 3.20686 19.6571 3.63506L8.64062 17.1588V22.3689C8.64062 22.9212 9.08834 23.3689 9.64062 23.3689C10.1929 23.3689 10.6406 22.9212 10.6406 22.3689V17.8703Z" fill="#8B949E"/>
<path fill-rule="evenodd" clip-rule="evenodd" d="M23 1.90172C23 1.40577 22.594 1 22.0979 1C21.9288 1 21.7822 1.04517 21.6468 1.12395L1.48484 11.7633C1.19164 11.9099 1 12.2367 1 12.5749C1 12.9129 1.19164 13.2172 1.4962 13.3751L6.72837 16.2378C6.86362 16.294 7.01023 16.3279 7.13425 16.3279C7.48384 16.3279 7.78836 16.1363 7.94621 15.832C8.16041 15.3924 7.98 14.8402 7.54023 14.6148L3.88678 12.5523L18.5234 4.79825L20.8987 3.59155L18.8166 20.1486L13.3136 17.5226C13.201 17.455 13.0656 17.4324 12.919 17.4324C12.5694 17.4324 12.265 17.6239 12.1072 17.9396C12.0056 18.1537 11.983 18.4017 12.062 18.627C12.141 18.8637 12.2988 19.0442 12.513 19.1455L19.1548 22.2787C19.2676 22.3463 19.4028 22.3689 19.5494 22.3689C19.6848 22.3689 19.8314 22.3351 19.9666 22.2675C20.226 22.1322 20.4064 21.8843 20.4402 21.6025L23 2.01431V1.90172Z" fill="#1B2129"/>
</svg>
