<svg width="24" height="24" viewBox="0 0 24 24" fill="none" xmlns="http://www.w3.org/2000/svg">
<path fill-rule="evenodd" clip-rule="evenodd" d="M11.0254 1.98242C11.0254 1.43014 11.4731 0.982422 12.0254 0.982422C12.5777 0.982422 13.0254 1.43014 13.0254 1.98242V15.9824C13.0254 16.5347 12.5777 16.9824 12.0254 16.9824C11.4731 16.9824 11.0254 16.5347 11.0254 15.9824V1.98242Z" fill="#1B2129"/>
<path d="M11.8725 15.5719L18.3308 9.33663C18.7281 8.95303 19.3612 8.96416 19.7448 9.36148C20.1284 9.75881 20.1173 10.3919 19.72 10.7755L12.5458 17.7018C12.3477 17.8931 12.0911 17.9862 11.836 17.9823C11.5812 17.9785 11.3275 17.8777 11.1353 17.6806L4.30943 10.6806C3.92386 10.2852 3.93183 9.65204 4.32725 9.26647C4.72266 8.88089 5.35577 8.88887 5.74135 9.28428L11.8725 15.5719Z" fill="#1B2129"/>
<path d="M1.02539 14.9824V19.9824C1.02539 21.6393 2.36854 22.9824 4.02539 22.9824H20.0254C21.6822 22.9824 23.0254 21.6393 23.0254 19.9824V14.9824C23.0254 14.4301 22.5777 13.9824 22.0254 13.9824C21.4731 13.9824 21.0254 14.4301 21.0254 14.9824V19.9824C21.0254 20.5347 20.5777 20.9824 20.0254 20.9824H4.02539C3.47311 20.9824 3.02539 20.5347 3.02539 19.9824V14.9824C3.02539 14.4301 2.57768 13.9824 2.02539 13.9824C1.47311 13.9824 1.02539 14.4301 1.02539 14.9824Z" fill="#8B949E"/>
</svg>
