<svg width="24" height="24" viewBox="0 0 24 24" fill="none" xmlns="http://www.w3.org/2000/svg">
<path fill-rule="evenodd" clip-rule="evenodd" d="M16.2992 11.9332C16.2992 14.3567 14.3808 16.3332 11.9992 16.3332C9.6176 16.3332 7.69922 14.3567 7.69922 11.9332C7.69922 9.50972 9.6176 7.5332 11.9992 7.5332C14.3808 7.5332 16.2992 9.50972 16.2992 11.9332ZM9.69922 11.9332C9.69922 13.2653 10.7358 14.3332 11.9992 14.3332C13.2627 14.3332 14.2992 13.2653 14.2992 11.9332C14.2992 10.6011 13.2627 9.5332 11.9992 9.5332C10.7358 9.5332 9.69922 10.6011 9.69922 11.9332Z" fill="#8B949E"/>
<path fill-rule="evenodd" clip-rule="evenodd" d="M23.2571 13.4097C20.0455 19.0813 16.2536 22 11.8856 22C7.50741 22 3.77197 19.0689 0.687986 13.3798C0.390449 12.8309 0.390467 12.1689 0.688018 11.6201C3.772 5.93113 7.50743 3 11.8856 3C16.2536 3 20.0455 5.91867 23.2571 11.5903C23.5767 12.1547 23.5767 12.8454 23.2571 13.4097ZM21.4739 12.5C18.5939 7.44559 15.3992 5 11.8858 5C8.37521 5 5.24494 7.44304 2.48633 12.5C5.2449 17.5569 8.37519 20 11.8858 20C15.3992 20 18.5939 17.5544 21.4739 12.5Z" fill="#1B2129"/>
</svg>
