<svg width="24" height="24" viewBox="0 0 24 24" fill="none" xmlns="http://www.w3.org/2000/svg">
<path d="M16.5823 17.6218C17.7115 16.0127 18.3316 14.2718 18.3316 12.3729C18.3316 10.5248 17.7097 8.68507 16.6725 7.14079C16.3646 6.68231 15.7433 6.56028 15.2848 6.86821C14.8263 7.17614 14.7043 7.79743 15.0122 8.2559C15.8384 9.48601 16.3316 10.945 16.3316 12.3729C16.3316 13.8327 15.8509 15.1823 14.9452 16.473C14.628 16.9251 14.7373 17.5487 15.1893 17.866C15.6414 18.1832 16.2651 18.0739 16.5823 17.6218Z" fill="#8B949E"/>
<path d="M19.2458 20.7944C20.812 18.3943 21.7294 15.3618 21.7294 12.2516C21.7294 9.48224 20.8754 6.82104 19.3706 3.9444C19.1146 3.45503 18.5103 3.26584 18.021 3.52183C17.5316 3.77783 17.3424 4.38207 17.5984 4.87144C18.9669 7.48761 19.7294 9.86346 19.7294 12.2516C19.7294 14.9703 18.9267 17.6237 17.5709 19.7014C17.269 20.1639 17.3993 20.7836 17.8618 21.0854C18.3243 21.3872 18.944 21.2569 19.2458 20.7944Z" fill="#8B949E"/>
<path fill-rule="evenodd" clip-rule="evenodd" d="M1 16.6587C1 18.1649 2.22104 19.3859 3.72727 19.3859H5.76456L10.0055 22.6234C10.3304 22.8714 10.7277 23.0057 11.1364 23.0057C12.1656 23.0057 13 22.1713 13 21.142V2.94957C13 2.46045 12.8077 1.99093 12.4646 1.64233C11.7426 0.908755 10.5627 0.899353 9.82911 1.62133L5.94548 5.44357H3.72727C2.22104 5.44357 1 6.66461 1 8.17084V16.6587ZM3.72727 7.44357H6.76458L11 3.27511V20.8664L6.44069 17.3859H3.72727C3.32561 17.3859 3 17.0603 3 16.6587V8.17084C3 7.76918 3.32561 7.44357 3.72727 7.44357Z" fill="#1B2129"/>
</svg>
