<svg width="24" height="24" viewBox="0 0 24 24" fill="none" xmlns="http://www.w3.org/2000/svg">
<path d="M16.6938 18.1927L21.4445 22.8096C21.8406 23.1945 22.4737 23.1855 22.8586 22.7894C23.2435 22.3933 23.2345 21.7602 22.8384 21.3753L18.0877 16.7585C17.6917 16.3735 17.0586 16.3826 16.6736 16.7786C16.2887 17.1747 16.2978 17.8078 16.6938 18.1927Z" fill="#8B949E"/>
<path fill-rule="evenodd" clip-rule="evenodd" d="M20.6589 10.7818C20.6589 16.1854 16.2569 20.5636 10.8294 20.5636C5.40199 20.5636 1 16.1854 1 10.7818C1 5.37826 5.40199 1 10.8294 1C16.2569 1 20.6589 5.37826 20.6589 10.7818ZM3 10.7818C3 15.0784 6.50415 18.5636 10.8294 18.5636C15.1547 18.5636 18.6589 15.0784 18.6589 10.7818C18.6589 6.48525 15.1547 3 10.8294 3C6.50415 3 3 6.48525 3 10.7818Z" fill="#1B2129"/>
</svg>
