<svg width="24" height="24" viewBox="0 0 24 24" fill="none" xmlns="http://www.w3.org/2000/svg">
<g clip-path="url(#clip0_642_457)">
<path fill-rule="evenodd" clip-rule="evenodd" d="M2.68759 18.5176H4.75799L9.02561 21.7754C9.35039 22.0233 9.74766 22.1576 10.1563 22.1576C11.1854 22.1576 12.0196 21.3233 12.0196 20.2942V2.01423C12.0196 1.52518 11.8273 1.05573 11.4843 0.70718C10.7624 -0.0262763 9.58267 -0.0356763 8.84921 0.686185L4.9375 4.53606H2.68759C1.19249 4.53606 -0.0195312 5.74808 -0.0195312 7.24318V15.8104C-0.0195312 17.3055 1.19249 18.5176 2.68759 18.5176ZM5.77263 6.57519L9.98047 2.43388V19.9389L5.44735 16.4784H2.68759C2.31867 16.4784 2.0196 16.1794 2.0196 15.8104V7.24318C2.0196 6.87426 2.31867 6.57519 2.68759 6.57519H5.77263Z" fill="#1B2129"/>
<path d="M14.5626 16.1339C14.1721 15.7433 14.1721 15.1102 14.5626 14.7197L20.1707 9.11156C20.5612 8.72104 21.1944 8.72104 21.5849 9.11156C21.9754 9.50209 21.9754 10.1353 21.5849 10.5258L15.9768 16.1339C15.5863 16.5244 14.9531 16.5244 14.5626 16.1339Z" fill="#8B949E"/>
<path fill-rule="evenodd" clip-rule="evenodd" d="M21.6427 16.1723C21.2521 16.5628 20.619 16.5628 20.2284 16.1723L14.515 10.4589C14.1245 10.0683 14.1245 9.43518 14.515 9.04465C14.9055 8.65413 15.5387 8.65413 15.9292 9.04465L21.6427 14.7581C22.0332 15.1486 22.0332 15.7818 21.6427 16.1723Z" fill="#8B949E"/>
</g>
<defs>
<clipPath id="clip0_642_457">
<rect width="24" height="24" fill="white"/>
</clipPath>
</defs>
</svg>
