<svg width="24" height="24" viewBox="0 0 24 24" fill="none" xmlns="http://www.w3.org/2000/svg">
<path fill-rule="evenodd" clip-rule="evenodd" d="M20 1H4C2.89543 1 2 1.89543 2 3V21C2 22.1046 2.89543 23 4 23H20C21.1046 23 22 22.1046 22 21V3C22 1.89543 21.1046 1 20 1ZM4 21V3H20V21H4Z" fill="#8B949E"/>
<path d="M7 8.76923C7 8.21695 7.44772 7.76923 8 7.76923H16C16.5523 7.76923 17 8.21695 17 8.76923C17 9.32151 16.5523 9.76923 16 9.76923H8C7.44772 9.76923 7 9.32151 7 8.76923Z" fill="#1B2129"/>
<path d="M7 13C7 12.4477 7.44772 12 8 12H16C16.5523 12 17 12.4477 17 13C17 13.5523 16.5523 14 16 14H8C7.44772 14 7 13.5523 7 13Z" fill="#1B2129"/>
</svg>
