<svg width="24" height="24" viewBox="0 0 24 24" fill="none" xmlns="http://www.w3.org/2000/svg">
<path d="M20.3339 1.7867C20.7244 1.39617 21.3576 1.39617 21.7481 1.7867C22.1386 2.17722 22.1386 2.81039 21.7481 3.20091L3.36332 21.5857C2.97279 21.9762 2.33963 21.9762 1.9491 21.5857C1.55858 21.1952 1.55858 20.562 1.9491 20.1715L20.3339 1.7867Z" fill="#8B949E"/>
<path fill-rule="evenodd" clip-rule="evenodd" d="M12.8866 8.21048C12.8866 7.65819 12.4389 7.21048 11.8866 7.21048C9.46608 7.21048 7.50195 9.16521 7.50195 11.5789C7.50195 12.1312 7.94967 12.5789 8.50195 12.5789C9.05424 12.5789 9.50195 12.1312 9.50195 11.5789C9.50195 10.2719 10.5685 9.21048 11.8866 9.21048C12.4389 9.21048 12.8866 8.76276 12.8866 8.21048ZM10.8867 14.9476C10.8867 15.4998 11.3344 15.9476 11.8867 15.9476C14.3072 15.9476 16.2713 13.9928 16.2713 11.5791C16.2713 11.0268 15.8236 10.5791 15.2713 10.5791C14.719 10.5791 14.2713 11.0268 14.2713 11.5791C14.2713 12.8861 13.2048 13.9476 11.8867 13.9476C11.3344 13.9476 10.8867 14.3953 10.8867 14.9476Z" fill="#8B949E"/>
<path fill-rule="evenodd" clip-rule="evenodd" d="M4.56492 16.7007C4.97324 16.3288 5.00279 15.6963 4.63091 15.288C4.12662 14.7343 3.3054 13.6225 2.18939 11.9754C5.14492 7.27834 8.37232 5.00003 11.8863 5.00003C12.852 5.00003 13.7899 5.17008 14.7055 5.5115C15.223 5.70446 15.7989 5.44138 15.9919 4.92391C16.1848 4.40643 15.9218 3.8305 15.4043 3.63754C14.2657 3.21298 13.0912 3.00003 11.8863 3.00003C7.56135 3.00003 3.74011 5.71595 0.437491 11.0046C0.0522892 11.6215 0.0665876 12.4066 0.47394 13.0091C1.671 14.7795 2.556 15.98 3.15225 16.6347C3.52413 17.043 4.1566 17.0726 4.56492 16.7007ZM18.438 7.00123C18.0414 7.38562 18.0316 8.01871 18.416 8.41527C19.001 9.01882 20.064 10.2465 21.5903 12.0832C18.616 16.7403 15.3859 19 11.886 19C10.5524 19 9.27187 18.6756 8.03137 18.021C7.54293 17.7632 6.93801 17.9502 6.68025 18.4387C6.42249 18.9271 6.60949 19.532 7.09794 19.7898C8.62301 20.5946 10.2234 21 11.886 21C16.1942 21 20.0178 18.3047 23.3426 13.0547C23.7695 12.3807 23.7133 11.5094 23.2037 10.8955C21.6055 8.97043 20.4934 7.68493 19.8521 7.02327C19.4677 6.62671 18.8346 6.61684 18.438 7.00123Z" fill="#1B2129"/>
</svg>
