<svg width="24" height="24" viewBox="0 0 24 24" fill="none" xmlns="http://www.w3.org/2000/svg">
<path d="M7.375 3H16.375V7.11157H18.375V2.85978C18.375 1.85176 17.5966 1 16.5893 1H7.16071C6.15338 1 5.375 1.85176 5.375 2.85978V7.28H7.375V3Z" fill="#8B949E"/>
<path d="M7.07859 19.48H3.66667C3.32674 19.48 3 19.112 3 18.6027V8.27733C3 7.76804 3.32674 7.4 3.66667 7.4H20.3333C20.6733 7.4 21 7.76804 21 8.27733V18.6027C21 19.112 20.6733 19.48 20.3333 19.48H17.0148V21.48H20.3333C21.8344 21.48 23 20.167 23 18.6027V8.27733C23 6.71298 21.8344 5.4 20.3333 5.4H3.66667C2.16565 5.4 1 6.71298 1 8.27733V18.6027C1 20.167 2.16565 21.48 3.66667 21.48H7.07859V19.48Z" fill="#1B2129"/>
<path fill-rule="evenodd" clip-rule="evenodd" d="M15.375 15.08H8.375C7.27043 15.08 6.375 15.9754 6.375 17.08V21C6.375 22.1046 7.27043 23 8.375 23H15.375C16.4796 23 17.375 22.1046 17.375 21V17.08C17.375 15.9754 16.4796 15.08 15.375 15.08ZM8.375 21V17.08H15.375V21H8.375Z" fill="#8B949E"/>
</svg>
