<svg width="24" height="24" viewBox="0 0 24 24" fill="none" xmlns="http://www.w3.org/2000/svg">
<path d="M16.5 2.83333V10.1667C16.5 10.6582 16.207 11 15.9286 11H8.07143C7.79299 11 7.5 10.6582 7.5 10.1667V2.83333H5.5V10.1667C5.5 11.7002 6.61412 13 8.07143 13H15.9286C17.3859 13 18.5 11.7002 18.5 10.1667V2.83333H16.5Z" fill="#8B949E"/>
<path fill-rule="evenodd" clip-rule="evenodd" d="M16.4794 1H3C1.89543 1 1 1.89543 1 3V21C1 22.1046 1.89543 23 3 23H21C22.1046 23 23 22.1046 23 21V8.17829C23 7.69463 22.8247 7.22736 22.5067 6.863L17.9861 1.68471C17.6063 1.24965 17.0569 1 16.4794 1ZM3 21V3H16.4794L21 8.17829V21H3Z" fill="#1B2129"/>
</svg>
