<svg width="24" height="24" viewBox="0 0 24 24" fill="none" xmlns="http://www.w3.org/2000/svg">
<path fill-rule="evenodd" clip-rule="evenodd" d="M12.4921 3.30122L12.608 3.145C13.4826 1.96589 15.4165 1 16.911 1C19.5277 1 21.6433 3.14514 21.6433 5.78443C21.6433 7.19788 21.0318 8.51135 19.998 9.41096L10.0152 19.8562C9.50067 20.3946 8.78833 20.6991 8.0436 20.6991H4.92649C3.42026 20.6991 2.19922 19.4781 2.19922 17.9719V15.138C2.19922 14.4323 2.47275 13.7541 2.96233 13.2459L10.8658 5.04137L12.4921 3.30122ZM13.3986 5.26025L12.3219 6.41239L12.3115 6.42337L4.40271 14.6333C4.27216 14.7688 4.19922 14.9497 4.19922 15.1379V17.9718C4.19922 18.3734 4.52483 18.699 4.92649 18.699H8.0436C8.24219 18.699 8.43215 18.6178 8.56936 18.4743L17.3938 9.24099L13.3986 5.26025ZM16.9109 3C18.4168 3 19.6432 4.24355 19.6432 5.78443C19.6432 6.39099 19.4522 6.96381 19.1137 7.43274L14.9004 3.72023C15.5128 3.3106 16.322 3 16.9109 3Z" fill="#1B2129"/>
<path d="M2.17969 22.0298C2.17969 21.4775 2.6274 21.0298 3.17969 21.0298H20.1797C20.732 21.0298 21.1797 21.4775 21.1797 22.0298C21.1797 22.5821 20.732 23.0298 20.1797 23.0298H3.17969C2.6274 23.0298 2.17969 22.5821 2.17969 22.0298Z" fill="#8B949E"/>
</svg>
