<svg width="24" height="24" viewBox="0 0 24 24" fill="none" xmlns="http://www.w3.org/2000/svg">
<path fill-rule="evenodd" clip-rule="evenodd" d="M10.9258 2C10.9258 1.44772 11.3735 1 11.9258 1C12.4781 1 12.9258 1.44772 12.9258 2L12.9258 17C12.9258 17.5523 12.4781 18 11.9258 18C11.3735 18 10.9258 17.5523 10.9258 17L10.9258 2Z" fill="#1B2129"/>
<path d="M11.7729 16.5895L18.2312 10.3542C18.6285 9.97061 19.2616 9.98174 19.6452 10.3791C20.0288 10.7764 20.0177 11.4095 19.6204 11.7931L12.4462 18.7194C12.2481 18.9106 11.9915 19.0038 11.7363 18.9999C11.4816 18.9961 11.2279 18.8953 11.0357 18.6981L4.20982 11.6981C3.82425 11.3027 3.83223 10.6696 4.22764 10.284C4.62305 9.89847 5.25616 9.90644 5.64174 10.3019L11.7729 16.5895Z" fill="#1B2129"/>
<path d="M21.9258 22C21.9258 22.5523 21.4781 23 20.9258 23L2.92578 23C2.3735 23 1.92578 22.5523 1.92578 22C1.92578 21.4477 2.3735 21 2.92578 21L20.9258 21C21.4781 21 21.9258 21.4477 21.9258 22Z" fill="#8B949E"/>
</svg>
