<svg width="24" height="24" viewBox="0 0 24 24" fill="none" xmlns="http://www.w3.org/2000/svg">
<path fill-rule="evenodd" clip-rule="evenodd" d="M1.29792 11.5144L5.21166 15.6393L4.74986 20.5011C4.72119 20.8029 4.76731 21.1072 4.88415 21.387C5.27702 22.3279 6.35823 22.7721 7.29911 22.3792L12.1936 20.3355L17.093 22.3797C17.3728 22.4965 17.6771 22.5425 17.9789 22.5138C18.9939 22.4171 19.7384 21.5159 19.6417 20.5009L19.1766 15.6162L22.8256 11.4612C23.0236 11.2357 23.1637 10.9654 23.2337 10.6736C23.4715 9.68215 22.8606 8.68559 21.8691 8.44776L16.8243 7.23761L13.7377 2.53118C13.5987 2.31923 13.4175 2.13817 13.2055 1.99928C12.3526 1.44061 11.2083 1.67914 10.6496 2.53206L7.57127 7.23166L2.22886 8.44325C1.90516 8.51666 1.60725 8.67598 1.36647 8.90443C0.626822 9.60622 0.59613 10.7747 1.29792 11.5144ZM7.28941 14.9226L2.93555 10.3339L8.80226 9.00336L12.1947 3.82422L15.5874 8.99741L21.1552 10.333L17.1044 14.9456L17.6271 20.4351L12.194 18.1682L6.76583 20.4348L7.28941 14.9226Z" fill="#1B2129"/>
<path fill-rule="evenodd" clip-rule="evenodd" d="M12.3232 9.49331C12.0174 9.03749 12.1469 8.41934 12.6099 8.12456C13.0575 7.83956 13.6508 7.96383 13.9464 8.40452L14.5413 9.29151C14.8471 9.74733 14.7176 10.3655 14.2546 10.6603C13.807 10.9453 13.2137 10.821 12.9181 10.3803L12.3232 9.49331Z" fill="#8B949E"/>
</svg>
