<svg width="24" height="24" viewBox="0 0 24 24" fill="none" xmlns="http://www.w3.org/2000/svg">
<path fill-rule="evenodd" clip-rule="evenodd" d="M20 10.28H4C2.89543 10.28 2 11.1754 2 12.28V21.28C2 22.3846 2.89543 23.28 4 23.28H20C21.1046 23.28 22 22.3846 22 21.28V12.28C22 11.1754 21.1046 10.28 20 10.28ZM4 21.28V12.28H20V21.28H4Z" fill="#1B2129"/>
<path d="M7.54492 11.2V7.8352C7.54492 5.15028 9.55493 3 11.9995 3C13.8383 3 15.4804 4.22572 16.1476 6.06951C16.3356 6.58883 16.9089 6.85748 17.4282 6.66954C17.9476 6.48161 18.2162 5.90826 18.0283 5.38893C17.0821 2.77438 14.705 1 11.9995 1C8.41908 1 5.54492 4.07473 5.54492 7.8352V11.2C5.54492 11.7523 5.99264 12.2 6.54492 12.2C7.09721 12.2 7.54492 11.7523 7.54492 11.2Z" fill="#1B2129"/>
<path d="M14 17C14 18.1046 13.3284 19 12.5 19C11.6716 19 11 18.1046 11 17C11 15.8954 11.6716 15 12.5 15C13.3284 15 14 15.8954 14 17Z" fill="#8B949E"/>
</svg>
