<svg width="24" height="24" viewBox="0 0 24 24" fill="none" xmlns="http://www.w3.org/2000/svg">
<path fill-rule="evenodd" clip-rule="evenodd" d="M13.4025 23C13.0421 23.0018 12.6869 22.9132 12.3697 22.7424L9.52966 21.1756C8.83798 20.7981 8.40871 20.0734 8.41081 19.2869V10.2936C8.41081 10.1585 8.34704 10.0313 8.23871 9.95027L1.67636 4.71322L1.59022 4.62726C0.987824 4.00485 0.837159 3.10347 1.18144 2.30927C1.52572 1.51507 2.27878 1.02146 3.13941 1.02146H20.8254C21.6861 1.02146 22.4606 1.51507 22.8049 2.30927C23.1492 3.10347 22.9985 3.98336 22.4177 4.62726L22.3315 4.71322L15.7047 10.0146C15.6044 10.1 15.5489 10.2266 15.5541 10.358V20.8536C15.5541 22.0391 14.5907 23 13.4025 23ZM2.79501 3.42514L9.31438 8.61921C9.83054 9.02208 10.1322 9.63955 10.132 10.2933V19.2866C10.1266 19.445 10.2094 19.5936 10.3471 19.6729L13.1872 21.2183C13.3227 21.2964 13.4899 21.295 13.624 21.2147C13.7581 21.1344 13.8381 20.9878 13.8327 20.8319V10.3578C13.8304 9.70832 14.1231 9.09283 14.6287 8.68368L21.1696 3.42514C21.2674 3.29497 21.2831 3.12101 21.2102 2.97554C21.1373 2.83018 20.9883 2.73826 20.8253 2.73826H3.13929C2.97633 2.73826 2.82726 2.83018 2.75434 2.97554C2.68154 3.12101 2.69719 3.29497 2.79501 3.42514Z" fill="#1B2129"/>
<path d="M17 12C17 11.4477 17.4477 11 18 11H22C22.5523 11 23 11.4477 23 12C23 12.5523 22.5523 13 22 13H18C17.4477 13 17 12.5523 17 12Z" fill="#8B949E"/>
<path d="M17 16C17 15.4477 17.4477 15 18 15H22C22.5523 15 23 15.4477 23 16C23 16.5523 22.5523 17 22 17H18C17.4477 17 17 16.5523 17 16Z" fill="#8B949E"/>
<path d="M17 20C17 19.4477 17.4477 19 18 19H22C22.5523 19 23 19.4477 23 20C23 20.5523 22.5523 21 22 21H18C17.4477 21 17 20.5523 17 20Z" fill="#8B949E"/>
</svg>
