<svg width="24" height="24" viewBox="0 0 24 24" fill="none" xmlns="http://www.w3.org/2000/svg">
<path fill-rule="evenodd" clip-rule="evenodd" d="M6.25955 16.3646C6.57922 16.672 7.05858 16.672 7.37813 16.3646C7.6978 16.0574 7.6978 15.5965 7.37813 15.2891L4.74152 12.7543H12.412C12.8914 12.7543 13.2109 12.4471 13.2109 11.9862C13.2109 11.5251 12.8914 11.218 12.412 11.218H4.74152L7.37802 8.68313C7.69758 8.37573 7.69758 7.91475 7.37802 7.60757C7.21819 7.45381 7.05838 7.37711 6.8188 7.37711C6.57899 7.37711 6.41916 7.45403 6.25944 7.60757L2.26444 11.5251C2.26444 11.5251 2.26444 11.602 2.18435 11.602C1.94477 11.8325 1.94477 12.2932 2.26444 12.5237L6.25955 16.3646Z" fill="#8B949E"/>
<path d="M3.81818 7.30675V4.56198C3.81818 4.15119 4.15119 3.81818 4.56198 3.81818L19.438 3.81818C19.8488 3.81818 20.1818 4.15119 20.1818 4.56198L20.1818 19.438C20.1818 19.8488 19.8488 20.1818 19.438 20.1818L4.56198 20.1818C4.15119 20.1818 3.81818 19.8488 3.81818 19.438V17.1951C3.81818 16.6931 3.41117 16.286 2.90909 16.286C2.40701 16.286 2 16.6931 2 17.1951V19.438C2 20.853 3.14704 22 4.56198 22L19.438 22C20.853 22 22 20.853 22 19.438L22 4.56198C22 3.14704 20.853 2 19.438 2L4.56198 2C3.14704 2 2 3.14704 2 4.56198V7.30675C2 7.80883 2.40701 8.21584 2.90909 8.21584C3.41117 8.21584 3.81818 7.80883 3.81818 7.30675Z" fill="#1B2129"/>
</svg>
