<svg width="24" height="24" viewBox="0 0 24 24" fill="none" xmlns="http://www.w3.org/2000/svg">
<path d="M3.58605 8.10596H14.0426C17.8359 8.10596 20.8687 10.8186 20.8687 14.106C20.8687 17.3933 17.8359 20.106 14.0426 20.106H3.47656C2.92428 20.106 2.47656 20.5537 2.47656 21.106C2.47656 21.6582 2.92428 22.106 3.47656 22.106H14.0426C18.8938 22.106 22.8687 18.5506 22.8687 14.106C22.8687 9.66128 18.8938 6.10596 14.0426 6.10596H3.58605C3.03376 6.10596 2.58605 6.55367 2.58605 7.10596C2.58605 7.65824 3.03376 8.10596 3.58605 8.10596Z" fill="#8B949E"/>
<path d="M3.40301 7.25011L7.93928 11.7582C8.33101 12.1475 8.33299 12.7807 7.94368 13.1724C7.55438 13.5641 6.92121 13.5661 6.52947 13.1768L1.27947 7.95941C1.27789 7.95784 1.27648 7.95642 1.27507 7.95501C0.885763 7.56327 0.887735 6.93011 1.27947 6.5408L6.52947 1.32341C6.92121 0.934103 7.55438 0.936075 7.94368 1.32781C8.33299 1.71955 8.33101 2.35272 7.93928 2.74202L3.40301 7.25011Z" fill="#1B2129"/>
</svg>
