<svg width="24" height="24" viewBox="0 0 24 24" fill="none" xmlns="http://www.w3.org/2000/svg">
<path fill-rule="evenodd" clip-rule="evenodd" d="M3 9.6857C3 10.238 2.55228 10.6857 2 10.6857C1.44772 10.6857 1 10.238 1 9.6857V3.81818C1 2.26174 2.26174 1 3.81818 1H10.127C10.6792 1 11.127 1.44772 11.127 2C11.127 2.55228 10.6792 3 10.127 3H3.81818C3.36631 3 3 3.36631 3 3.81818V9.6857ZM11.1719 22C11.1719 21.4477 10.7242 21 10.1719 21H3.81818C3.36631 21 3 20.6337 3 20.1818V14.3237C3 13.7714 2.55228 13.3237 2 13.3237C1.44772 13.3237 1 13.7714 1 14.3237V20.1818C1 21.7383 2.26174 23 3.81818 23H10.1719C10.7242 23 11.1719 22.5523 11.1719 22ZM21.9999 13.3276C21.4476 13.3276 20.9999 13.7754 20.9999 14.3276V20.1817C20.9999 20.6336 20.6335 20.9999 20.1817 20.9999H13.8125C13.2602 20.9999 12.8125 21.4476 12.8125 21.9999C12.8125 22.5522 13.2602 22.9999 13.8125 22.9999H20.1817C21.7381 22.9999 22.9999 21.7381 22.9999 20.1817V14.3276C22.9999 13.7754 22.5521 13.3276 21.9999 13.3276ZM12.8125 2C12.8125 2.55228 13.2602 3 13.8125 3H20.1817C20.6335 3 20.9999 3.36631 20.9999 3.81818V9.69911C20.9999 10.2514 21.4476 10.6991 21.9999 10.6991C22.5521 10.6991 22.9999 10.2514 22.9999 9.69911V3.81818C22.9999 2.26174 21.7381 1 20.1817 1H13.8125C13.2602 1 12.8125 1.44772 12.8125 2Z" fill="#8B949E"/>
<path d="M1 12C1 11.4477 1.44772 11 2 11H22C22.5523 11 23 11.4477 23 12C23 12.5523 22.5523 13 22 13H2C1.44772 13 1 12.5523 1 12Z" fill="#1B2129"/>
</svg>
