<svg width="24" height="24" viewBox="0 0 24 24" fill="none" xmlns="http://www.w3.org/2000/svg">
<path d="M10.0655 12.3139L20.1195 4.08789C20.547 3.73816 20.61 3.10814 20.2603 2.6807C19.9105 2.25325 19.2805 2.19025 18.8531 2.53998L8.69217 10.8534C8.59505 10.9329 8.50609 11.0219 8.42663 11.119C7.76667 11.9256 7.88556 13.1145 8.69217 13.7744L18.8531 22.0879C19.2805 22.4376 19.9105 22.3746 20.2603 21.9472C20.61 21.5197 20.547 20.8897 20.1195 20.54L10.0655 12.3139Z" fill="#1B2129"/>
<path d="M4 3.20102C4 2.71111 4.39715 2.31396 4.88706 2.31396H5.11294C5.60285 2.31396 6 2.71111 6 3.20102V21.4269C6 21.9168 5.60285 22.314 5.11294 22.314H4.88706C4.39715 22.314 4 21.9168 4 21.4269V3.20102Z" fill="#8B949E"/>
</svg>
