<svg width="24" height="24" viewBox="0 0 24 24" fill="none" xmlns="http://www.w3.org/2000/svg">
<path fill-rule="evenodd" clip-rule="evenodd" d="M21.0076 0.999954C21.2817 0.999954 21.5153 1.09736 21.7087 1.29504C21.903 1.48692 22 1.72125 22 1.99812V7.97271C22 8.24959 21.903 8.48391 21.7088 8.67882C21.5153 8.87359 21.2817 8.97099 21.0076 8.97099C20.7335 8.97099 20.4999 8.87359 20.3064 8.67882C20.1121 8.48391 20.0154 8.24959 20.0154 7.97271V4.40256L11.7865 12.6655C11.596 12.8574 11.3636 12.9548 11.0892 12.9548C10.8051 12.9548 10.569 12.8603 10.3801 12.6717C10.1913 12.4798 10.0977 12.2424 10.0977 11.9595C10.0977 11.6825 10.1926 11.4511 10.3839 11.2564L18.6128 2.99352H15.0564C14.7825 2.99352 14.5495 2.89597 14.3548 2.70135C14.1617 2.5064 14.0642 2.27211 14.0642 1.99812C14.0642 1.72125 14.1617 1.48692 14.3548 1.29212C14.5495 1.09736 14.7825 0.999954 15.0563 0.999954H21.0076Z" fill="#1B2129"/>
<path d="M21 11.2743V20.3261C21 20.6992 20.7006 21 20.3333 21H3.66667C3.29945 21 3 20.6992 3 20.3261V3.58695C3 3.21379 3.29945 2.91304 3.66667 2.91304H12.1175C12.6698 2.91304 13.1175 2.46532 13.1175 1.91304C13.1175 1.36076 12.6698 0.91304 12.1175 0.91304H3.66667C2.19293 0.91304 1 2.11116 1 3.58695V20.3261C1 21.8019 2.19293 23 3.66667 23H20.3333C21.8071 23 23 21.8019 23 20.3261V11.2743C23 10.722 22.5523 10.2743 22 10.2743C21.4477 10.2743 21 10.722 21 11.2743Z" fill="#8B949E"/>
</svg>
