<svg width="24" height="24" viewBox="0 0 24 24" fill="none" xmlns="http://www.w3.org/2000/svg">
<path fill-rule="evenodd" clip-rule="evenodd" d="M21.17 1H3C1.89543 1 1 1.89543 1 3V19.9427C1 20.2881 1.09777 20.6265 1.28202 20.9187C1.82106 21.7737 2.95111 22.0297 3.80603 21.4907L8.3561 18.6218C8.50301 18.5292 8.67312 18.48 8.84679 18.48H21.17C22.1807 18.48 23 17.6607 23 16.65V2.83C23 1.81932 22.1807 1 21.17 1ZM3 3H21V16.48H8.84679C8.29559 16.48 7.75565 16.636 7.2894 16.93L3 19.6345V3Z" fill="#8B949E"/>
<path d="M5.58398 7.52002C5.58398 6.96773 6.0317 6.52002 6.58398 6.52002H17.4173C17.9696 6.52002 18.4173 6.96773 18.4173 7.52002C18.4173 8.0723 17.9696 8.52002 17.4173 8.52002H6.58398C6.0317 8.52002 5.58398 8.0723 5.58398 7.52002Z" fill="#1B2129"/>
<path d="M5.58398 12.1201C5.58398 11.5678 6.0317 11.1201 6.58398 11.1201H13.7507C14.3029 11.1201 14.7507 11.5678 14.7507 12.1201C14.7507 12.6724 14.3029 13.1201 13.7507 13.1201H6.58399C6.0317 13.1201 5.58398 12.6724 5.58398 12.1201Z" fill="#1B2129"/>
</svg>
