<svg width="24" height="24" viewBox="0 0 24 24" fill="none" xmlns="http://www.w3.org/2000/svg">
<path d="M1.0332 12.0208C1.0332 11.4685 1.48092 11.0208 2.0332 11.0208H22.0332C22.5855 11.0208 23.0332 11.4685 23.0332 12.0208C23.0332 12.5731 22.5855 13.0208 22.0332 13.0208H2.0332C1.48092 13.0208 1.0332 12.5731 1.0332 12.0208Z" fill="#8B949E"/>
<path fill-rule="evenodd" clip-rule="evenodd" d="M11.5518 23.0537C11.0216 23.0537 10.5918 22.6239 10.5918 22.0937L10.5918 2.01371C10.5918 1.48352 11.0216 1.05371 11.5518 1.05371C12.082 1.05371 12.5118 1.48352 12.5118 2.01371L12.5118 22.0937C12.5118 22.6239 12.082 23.0537 11.5518 23.0537Z" fill="#1B2129"/>
</svg>
