<svg width="24" height="24" viewBox="0 0 24 24" fill="none" xmlns="http://www.w3.org/2000/svg">
<path fill-rule="evenodd" clip-rule="evenodd" d="M20 10H4C2.89543 10 2 10.8954 2 12V21C2 22.1046 2.89543 23 4 23H20C21.1046 23 22 22.1046 22 21V12C22 10.8954 21.1046 10 20 10ZM4 21V12H20V21H4Z" fill="#1B2129"/>
<path d="M8 10.7242V7.65201C8 5.24814 9.80555 3.32422 12 3.32422C14.1944 3.32422 16 5.24814 16 7.65201V10.7077H18V7.65201C18 4.17096 15.3284 1.32422 12 1.32422C8.6716 1.32422 6 4.17096 6 7.65201V10.7242H8Z" fill="#1B2129"/>
<path d="M13.7734 16.6001C13.7734 17.7047 13.1019 18.6001 12.2734 18.6001C11.445 18.6001 10.7734 17.7047 10.7734 16.6001C10.7734 15.4955 11.445 14.6001 12.2734 14.6001C13.1019 14.6001 13.7734 15.4955 13.7734 16.6001Z" fill="#8B949E"/>
</svg>
