<svg width="24" height="24" viewBox="0 0 24 24" fill="none" xmlns="http://www.w3.org/2000/svg">
<path fill-rule="evenodd" clip-rule="evenodd" d="M9.15385 1H3C1.89543 1 1 1.89543 1 3V9.15385C1 10.2584 1.89543 11.1538 3 11.1538H9.15385C10.2584 11.1538 11.1538 10.2584 11.1538 9.15385V3C11.1538 1.89543 10.2584 1 9.15385 1ZM3 9.15385V3H9.15385V9.15385H3Z" fill="#8B949E"/>
<path fill-rule="evenodd" clip-rule="evenodd" d="M20.9995 1H14.8457C13.7411 1 12.8457 1.89543 12.8457 3V9.15385C12.8457 10.2584 13.7411 11.1538 14.8457 11.1538H20.9995C22.1041 11.1538 22.9995 10.2584 22.9995 9.15385V3C22.9995 1.89543 22.1041 1 20.9995 1ZM14.8457 9.15385V3H20.9995V9.15385H14.8457Z" fill="#1B2129"/>
<path fill-rule="evenodd" clip-rule="evenodd" d="M9.15385 12.8462H3C1.89543 12.8462 1 13.7416 1 14.8462V21C1 22.1046 1.89543 23 3 23H9.15385C10.2584 23 11.1538 22.1046 11.1538 21V14.8462C11.1538 13.7416 10.2584 12.8462 9.15385 12.8462ZM3 21V14.8462H9.15385V21H3Z" fill="#8B949E"/>
<path fill-rule="evenodd" clip-rule="evenodd" d="M20.9995 12.8462H14.8457C13.7411 12.8462 12.8457 13.7416 12.8457 14.8462V21C12.8457 22.1046 13.7411 23 14.8457 23H20.9995C22.1041 23 22.9995 22.1046 22.9995 21V14.8462C22.9995 13.7416 22.1041 12.8462 20.9995 12.8462ZM14.8457 21V14.8462H20.9995V21H14.8457Z" fill="#8B949E"/>
</svg>
