<svg width="24" height="24" viewBox="0 0 24 24" fill="none" xmlns="http://www.w3.org/2000/svg">
<path opacity="0.01" d="M2.2832 0.295898H22.2832V20.0102H2.2832V0.295898Z" fill="#1B2129"/>
<path d="M18.6124 3.8344C17.7002 2.95957 16.636 2.28073 15.4472 1.81941C14.3008 1.37483 13.0896 1.14775 11.8484 1.14775C10.6073 1.14775 9.39606 1.37483 8.24963 1.81941C7.06332 2.28073 5.99664 2.95957 5.08448 3.8344C4.17232 4.70924 3.46452 5.72988 2.98352 6.87003C2.51997 7.96955 2.2832 9.13122 2.2832 10.3216C2.2832 11.5119 2.51997 12.6736 2.98352 13.7731C3.46452 14.9109 4.17232 15.9339 5.08448 16.8087L11.1762 22.6512C11.5519 23.0115 12.1449 23.0115 12.5206 22.6512C12.9472 22.2421 12.9118 21.5507 12.4524 21.1789C12.1923 20.9683 11.9492 20.7669 11.8464 20.6682C10.1058 18.9989 6.37302 15.3889 6.37302 15.3889C3.4596 12.5947 3.4596 8.04843 6.37302 5.25422C7.78363 3.90133 9.8501 2.84068 11.8464 2.84068C13.8427 2.84068 15.9043 3.90133 17.3149 5.25422C20.2283 8.04843 20.2283 12.5947 17.3149 15.3889C17.3149 15.3889 13.5997 18.9886 11.8484 20.6682C11.7491 20.7635 11.5049 20.966 11.2428 21.1784C10.7838 21.5504 10.7498 22.2422 11.1762 22.6512C11.5519 23.0115 12.1449 23.0115 12.5206 22.6512L18.6124 16.8087C19.5245 15.9339 20.2323 14.9133 20.7133 13.7731C21.1769 12.6736 21.4136 11.5119 21.4136 10.3216C21.4136 9.13122 21.1769 7.96955 20.7133 6.87003C20.2323 5.73227 19.5245 4.70924 18.6124 3.8344Z" fill="#1B2129"/>
<path fill-rule="evenodd" clip-rule="evenodd" d="M11.8494 7.11035C13.7678 7.11035 15.3276 8.63835 15.3276 10.5178C15.3276 12.3952 13.7678 13.9232 11.8494 13.9252C9.93087 13.9252 8.37109 12.3972 8.37109 10.5178C8.37109 8.63835 9.93087 7.11035 11.8494 7.11035ZM10.1094 10.5177C10.1094 11.458 10.8906 12.2214 11.8485 12.2214C12.8084 12.2214 13.5876 11.458 13.5876 10.5177C13.5876 9.57736 12.8084 8.81396 11.8485 8.81396C10.8886 8.81396 10.1094 9.57736 10.1094 10.5177Z" fill="#8B949E"/>
</svg>
