<svg width="24" height="24" viewBox="0 0 24 24" fill="none" xmlns="http://www.w3.org/2000/svg">
<path d="M7 12.3142C7 13.4187 6.10457 14.3142 5 14.3142C3.89543 14.3142 3 13.4187 3 12.3142C3 11.2096 3.89543 10.3142 5 10.3142C6.10457 10.3142 7 11.2096 7 12.3142Z" fill="#1B2129"/>
<path d="M13.619 12.3142C13.619 13.4187 12.7236 14.3142 11.619 14.3142C10.5144 14.3142 9.61902 13.4187 9.61902 12.3142C9.61902 11.2096 10.5144 10.3142 11.619 10.3142C12.7236 10.3142 13.619 11.2096 13.619 12.3142Z" fill="#8B949E"/>
<path d="M20.2383 12.3142C20.2383 13.4187 19.3429 14.3142 18.2383 14.3142C17.1337 14.3142 16.2383 13.4187 16.2383 12.3142C16.2383 11.2096 17.1337 10.3142 18.2383 10.3142C19.3429 10.3142 20.2383 11.2096 20.2383 12.3142Z" fill="#1B2129"/>
</svg>
